<mxfile host="app.diagrams.net" agent="Mozilla/5.0 (Windows NT 10.0; Win64; x64) AppleWebKit/537.36 (KHTML, like Gecko) Chrome/133.0.0.0 Safari/537.36" version="26.0.16">
  <diagram name="Page-1" id="Fu7vQey6b7b9IEnISFIh">
    <mxGraphModel dx="2055" dy="1131" grid="1" gridSize="10" guides="1" tooltips="1" connect="1" arrows="1" fold="1" page="1" pageScale="1" pageWidth="827" pageHeight="1169" math="0" shadow="0">
      <root>
        <mxCell id="0" />
        <mxCell id="1" parent="0" />
        <mxCell id="OwwZIWe60FuZfEsH7cmh-1" value="" style="endArrow=none;html=1;rounded=0;shape=link;" edge="1" parent="1">
          <mxGeometry width="50" height="50" relative="1" as="geometry">
            <mxPoint x="-240" y="240" as="sourcePoint" />
            <mxPoint x="1080" y="240" as="targetPoint" />
          </mxGeometry>
        </mxCell>
        <mxCell id="OwwZIWe60FuZfEsH7cmh-3" style="edgeStyle=orthogonalEdgeStyle;rounded=0;orthogonalLoop=1;jettySize=auto;html=1;" edge="1" parent="1" source="OwwZIWe60FuZfEsH7cmh-2">
          <mxGeometry relative="1" as="geometry">
            <mxPoint x="420" y="240" as="targetPoint" />
          </mxGeometry>
        </mxCell>
        <mxCell id="OwwZIWe60FuZfEsH7cmh-2" value="Sākums" style="ellipse;whiteSpace=wrap;html=1;" vertex="1" parent="1">
          <mxGeometry x="360" y="120" width="120" height="60" as="geometry" />
        </mxCell>
        <mxCell id="OwwZIWe60FuZfEsH7cmh-16" style="edgeStyle=orthogonalEdgeStyle;rounded=0;orthogonalLoop=1;jettySize=auto;html=1;entryX=0.5;entryY=0;entryDx=0;entryDy=0;" edge="1" parent="1" source="OwwZIWe60FuZfEsH7cmh-4" target="OwwZIWe60FuZfEsH7cmh-13">
          <mxGeometry relative="1" as="geometry" />
        </mxCell>
        <mxCell id="OwwZIWe60FuZfEsH7cmh-4" value="Sākumlapa" style="rounded=1;whiteSpace=wrap;html=1;" vertex="1" parent="1">
          <mxGeometry x="-227" y="280" width="127" height="30" as="geometry" />
        </mxCell>
        <mxCell id="OwwZIWe60FuZfEsH7cmh-5" value="Jaunumu apskate&amp;nbsp;" style="rounded=1;whiteSpace=wrap;html=1;" vertex="1" parent="1">
          <mxGeometry x="-65" y="280" width="127" height="30" as="geometry" />
        </mxCell>
        <mxCell id="OwwZIWe60FuZfEsH7cmh-6" value="Produkcijas apskate" style="rounded=1;whiteSpace=wrap;html=1;" vertex="1" parent="1">
          <mxGeometry x="95" y="280" width="127" height="30" as="geometry" />
        </mxCell>
        <mxCell id="OwwZIWe60FuZfEsH7cmh-7" value="Izveido pats apskate" style="rounded=1;whiteSpace=wrap;html=1;" vertex="1" parent="1">
          <mxGeometry x="255" y="280" width="127" height="30" as="geometry" />
        </mxCell>
        <mxCell id="OwwZIWe60FuZfEsH7cmh-8" value="Atsauksmes apskate" style="rounded=1;whiteSpace=wrap;html=1;" vertex="1" parent="1">
          <mxGeometry x="425" y="280" width="127" height="30" as="geometry" />
        </mxCell>
        <mxCell id="OwwZIWe60FuZfEsH7cmh-9" value="Par mums apskate&amp;nbsp;" style="rounded=1;whiteSpace=wrap;html=1;" vertex="1" parent="1">
          <mxGeometry x="595" y="280" width="127" height="30" as="geometry" />
        </mxCell>
        <mxCell id="OwwZIWe60FuZfEsH7cmh-10" value="Kontakti apskate&amp;nbsp;" style="rounded=1;whiteSpace=wrap;html=1;" vertex="1" parent="1">
          <mxGeometry x="765" y="280" width="127" height="30" as="geometry" />
        </mxCell>
        <mxCell id="OwwZIWe60FuZfEsH7cmh-36" style="edgeStyle=orthogonalEdgeStyle;rounded=0;orthogonalLoop=1;jettySize=auto;html=1;entryX=0.5;entryY=0;entryDx=0;entryDy=0;" edge="1" parent="1">
          <mxGeometry relative="1" as="geometry">
            <mxPoint x="996.44" y="310" as="sourcePoint" />
            <mxPoint x="996.44" y="350" as="targetPoint" />
          </mxGeometry>
        </mxCell>
        <mxCell id="OwwZIWe60FuZfEsH7cmh-11" value="Autorizācijas lapa" style="rounded=1;whiteSpace=wrap;html=1;" vertex="1" parent="1">
          <mxGeometry x="933" y="280" width="127" height="30" as="geometry" />
        </mxCell>
        <mxCell id="OwwZIWe60FuZfEsH7cmh-17" style="edgeStyle=orthogonalEdgeStyle;rounded=0;orthogonalLoop=1;jettySize=auto;html=1;entryX=0.5;entryY=0;entryDx=0;entryDy=0;" edge="1" parent="1" source="OwwZIWe60FuZfEsH7cmh-13" target="OwwZIWe60FuZfEsH7cmh-14">
          <mxGeometry relative="1" as="geometry" />
        </mxCell>
        <mxCell id="OwwZIWe60FuZfEsH7cmh-13" value="Jaunumu apskate" style="rounded=1;whiteSpace=wrap;html=1;" vertex="1" parent="1">
          <mxGeometry x="-227" y="350" width="127" height="30" as="geometry" />
        </mxCell>
        <mxCell id="OwwZIWe60FuZfEsH7cmh-15" style="edgeStyle=orthogonalEdgeStyle;rounded=0;orthogonalLoop=1;jettySize=auto;html=1;entryX=0;entryY=0.5;entryDx=0;entryDy=0;" edge="1" parent="1" target="OwwZIWe60FuZfEsH7cmh-5">
          <mxGeometry relative="1" as="geometry">
            <mxPoint x="-130.00000000000045" y="445" as="sourcePoint" />
            <mxPoint x="-81.5469999999998" y="284.99" as="targetPoint" />
            <Array as="points">
              <mxPoint x="-130" y="450" />
              <mxPoint x="-80" y="450" />
              <mxPoint x="-80" y="295" />
            </Array>
          </mxGeometry>
        </mxCell>
        <mxCell id="OwwZIWe60FuZfEsH7cmh-21" value="Jā" style="edgeLabel;html=1;align=center;verticalAlign=middle;resizable=0;points=[];" vertex="1" connectable="0" parent="OwwZIWe60FuZfEsH7cmh-15">
          <mxGeometry x="-0.5774" y="-1" relative="1" as="geometry">
            <mxPoint as="offset" />
          </mxGeometry>
        </mxCell>
        <mxCell id="OwwZIWe60FuZfEsH7cmh-20" value="" style="edgeStyle=orthogonalEdgeStyle;rounded=0;orthogonalLoop=1;jettySize=auto;html=1;" edge="1" parent="1" source="OwwZIWe60FuZfEsH7cmh-14" target="OwwZIWe60FuZfEsH7cmh-19">
          <mxGeometry relative="1" as="geometry" />
        </mxCell>
        <mxCell id="OwwZIWe60FuZfEsH7cmh-14" value="Skatīt vairāk&amp;nbsp;" style="rhombus;whiteSpace=wrap;html=1;" vertex="1" parent="1">
          <mxGeometry x="-218.5" y="410" width="110" height="80" as="geometry" />
        </mxCell>
        <mxCell id="OwwZIWe60FuZfEsH7cmh-18" value="" style="endArrow=classic;html=1;rounded=0;entryX=0.528;entryY=0;entryDx=0;entryDy=0;entryPerimeter=0;" edge="1" parent="1">
          <mxGeometry width="50" height="50" relative="1" as="geometry">
            <mxPoint x="-163.57" y="250" as="sourcePoint" />
            <mxPoint x="-163.51399999999995" y="280" as="targetPoint" />
          </mxGeometry>
        </mxCell>
        <mxCell id="OwwZIWe60FuZfEsH7cmh-27" value="" style="edgeStyle=orthogonalEdgeStyle;rounded=0;orthogonalLoop=1;jettySize=auto;html=1;entryX=0.5;entryY=0;entryDx=0;entryDy=0;" edge="1" parent="1" source="OwwZIWe60FuZfEsH7cmh-19" target="OwwZIWe60FuZfEsH7cmh-24">
          <mxGeometry relative="1" as="geometry">
            <Array as="points">
              <mxPoint x="-164" y="560" />
              <mxPoint x="-163" y="560" />
              <mxPoint x="-163" y="585" />
            </Array>
          </mxGeometry>
        </mxCell>
        <mxCell id="OwwZIWe60FuZfEsH7cmh-19" value="Produkcijas apskate" style="rounded=1;whiteSpace=wrap;html=1;" vertex="1" parent="1">
          <mxGeometry x="-227" y="520" width="127" height="30" as="geometry" />
        </mxCell>
        <mxCell id="OwwZIWe60FuZfEsH7cmh-22" value="Nē" style="text;html=1;align=center;verticalAlign=middle;resizable=0;points=[];autosize=1;strokeColor=none;fillColor=none;" vertex="1" parent="1">
          <mxGeometry x="-170" y="490" width="40" height="30" as="geometry" />
        </mxCell>
        <mxCell id="OwwZIWe60FuZfEsH7cmh-23" value="" style="edgeStyle=orthogonalEdgeStyle;rounded=0;orthogonalLoop=1;jettySize=auto;html=1;" edge="1" parent="1" source="OwwZIWe60FuZfEsH7cmh-24" target="OwwZIWe60FuZfEsH7cmh-25">
          <mxGeometry relative="1" as="geometry" />
        </mxCell>
        <mxCell id="OwwZIWe60FuZfEsH7cmh-28" style="edgeStyle=orthogonalEdgeStyle;rounded=0;orthogonalLoop=1;jettySize=auto;html=1;entryX=0;entryY=0.5;entryDx=0;entryDy=0;" edge="1" parent="1" source="OwwZIWe60FuZfEsH7cmh-24" target="OwwZIWe60FuZfEsH7cmh-6">
          <mxGeometry relative="1" as="geometry">
            <Array as="points">
              <mxPoint x="70" y="625" />
              <mxPoint x="70" y="295" />
            </Array>
          </mxGeometry>
        </mxCell>
        <mxCell id="OwwZIWe60FuZfEsH7cmh-29" value="Jā" style="edgeLabel;html=1;align=center;verticalAlign=middle;resizable=0;points=[];" vertex="1" connectable="0" parent="OwwZIWe60FuZfEsH7cmh-28">
          <mxGeometry x="-0.9203" relative="1" as="geometry">
            <mxPoint as="offset" />
          </mxGeometry>
        </mxCell>
        <mxCell id="OwwZIWe60FuZfEsH7cmh-24" value="Skatīt vairāk&amp;nbsp;" style="rhombus;whiteSpace=wrap;html=1;" vertex="1" parent="1">
          <mxGeometry x="-218.5" y="585" width="110" height="80" as="geometry" />
        </mxCell>
        <mxCell id="OwwZIWe60FuZfEsH7cmh-25" value="Produkcijas apskate" style="rounded=1;whiteSpace=wrap;html=1;" vertex="1" parent="1">
          <mxGeometry x="-227" y="695" width="127" height="30" as="geometry" />
        </mxCell>
        <mxCell id="OwwZIWe60FuZfEsH7cmh-26" value="Nē" style="text;html=1;align=center;verticalAlign=middle;resizable=0;points=[];autosize=1;strokeColor=none;fillColor=none;" vertex="1" parent="1">
          <mxGeometry x="-170" y="665" width="40" height="30" as="geometry" />
        </mxCell>
        <mxCell id="OwwZIWe60FuZfEsH7cmh-34" style="edgeStyle=orthogonalEdgeStyle;rounded=0;orthogonalLoop=1;jettySize=auto;html=1;entryX=0.5;entryY=0;entryDx=0;entryDy=0;" edge="1" parent="1" source="OwwZIWe60FuZfEsH7cmh-31" target="OwwZIWe60FuZfEsH7cmh-32">
          <mxGeometry relative="1" as="geometry" />
        </mxCell>
        <mxCell id="OwwZIWe60FuZfEsH7cmh-35" style="edgeStyle=orthogonalEdgeStyle;rounded=0;orthogonalLoop=1;jettySize=auto;html=1;entryX=0.5;entryY=0;entryDx=0;entryDy=0;" edge="1" parent="1" source="OwwZIWe60FuZfEsH7cmh-31" target="OwwZIWe60FuZfEsH7cmh-33">
          <mxGeometry relative="1" as="geometry" />
        </mxCell>
        <mxCell id="OwwZIWe60FuZfEsH7cmh-37" value="Nē" style="edgeLabel;html=1;align=center;verticalAlign=middle;resizable=0;points=[];" vertex="1" connectable="0" parent="OwwZIWe60FuZfEsH7cmh-35">
          <mxGeometry x="-0.6605" relative="1" as="geometry">
            <mxPoint as="offset" />
          </mxGeometry>
        </mxCell>
        <mxCell id="OwwZIWe60FuZfEsH7cmh-31" value="Ir konts" style="rhombus;whiteSpace=wrap;html=1;" vertex="1" parent="1">
          <mxGeometry x="941.5" y="350" width="110" height="80" as="geometry" />
        </mxCell>
        <mxCell id="OwwZIWe60FuZfEsH7cmh-32" value="Autorizēšanās" style="rounded=1;whiteSpace=wrap;html=1;" vertex="1" parent="1">
          <mxGeometry x="933" y="470" width="127" height="30" as="geometry" />
        </mxCell>
        <mxCell id="OwwZIWe60FuZfEsH7cmh-33" value="Reģisrēšanās" style="rounded=1;whiteSpace=wrap;html=1;" vertex="1" parent="1">
          <mxGeometry x="1090" y="470" width="127" height="30" as="geometry" />
        </mxCell>
        <mxCell id="OwwZIWe60FuZfEsH7cmh-38" value="Jā" style="text;html=1;align=center;verticalAlign=middle;resizable=0;points=[];autosize=1;strokeColor=none;fillColor=none;" vertex="1" parent="1">
          <mxGeometry x="990" y="428" width="40" height="30" as="geometry" />
        </mxCell>
        <mxCell id="OwwZIWe60FuZfEsH7cmh-39" value="" style="endArrow=classic;html=1;rounded=0;entryX=0.512;entryY=-0.007;entryDx=0;entryDy=0;entryPerimeter=0;" edge="1" parent="1">
          <mxGeometry width="50" height="50" relative="1" as="geometry">
            <mxPoint x="-1.57" y="250.21" as="sourcePoint" />
            <mxPoint x="-1.5459999999999992" y="280" as="targetPoint" />
          </mxGeometry>
        </mxCell>
        <mxCell id="OwwZIWe60FuZfEsH7cmh-40" value="" style="endArrow=classic;html=1;rounded=0;entryX=0.514;entryY=-0.015;entryDx=0;entryDy=0;entryPerimeter=0;" edge="1" parent="1">
          <mxGeometry width="50" height="50" relative="1" as="geometry">
            <mxPoint x="158.36" y="250.45" as="sourcePoint" />
            <mxPoint x="158.63800000000003" y="280" as="targetPoint" />
          </mxGeometry>
        </mxCell>
        <mxCell id="OwwZIWe60FuZfEsH7cmh-41" value="" style="endArrow=classic;html=1;rounded=0;entryX=0.514;entryY=0.001;entryDx=0;entryDy=0;entryPerimeter=0;" edge="1" parent="1">
          <mxGeometry width="50" height="50" relative="1" as="geometry">
            <mxPoint x="318.36" y="249.97" as="sourcePoint" />
            <mxPoint x="318.6379999999998" y="280.00000000000006" as="targetPoint" />
          </mxGeometry>
        </mxCell>
        <mxCell id="OwwZIWe60FuZfEsH7cmh-42" value="" style="endArrow=classic;html=1;rounded=0;entryX=0.514;entryY=-0.015;entryDx=0;entryDy=0;entryPerimeter=0;" edge="1" parent="1">
          <mxGeometry width="50" height="50" relative="1" as="geometry">
            <mxPoint x="488.36" y="250.45" as="sourcePoint" />
            <mxPoint x="488.6379999999998" y="280" as="targetPoint" />
          </mxGeometry>
        </mxCell>
        <mxCell id="OwwZIWe60FuZfEsH7cmh-43" value="" style="endArrow=classic;html=1;rounded=0;entryX=0.512;entryY=-0.015;entryDx=0;entryDy=0;entryPerimeter=0;" edge="1" parent="1">
          <mxGeometry width="50" height="50" relative="1" as="geometry">
            <mxPoint x="658.43" y="250.45" as="sourcePoint" />
            <mxPoint x="658.4539999999998" y="280" as="targetPoint" />
          </mxGeometry>
        </mxCell>
        <mxCell id="OwwZIWe60FuZfEsH7cmh-44" value="" style="endArrow=classic;html=1;rounded=0;entryX=0.512;entryY=-0.022;entryDx=0;entryDy=0;entryPerimeter=0;" edge="1" parent="1">
          <mxGeometry width="50" height="50" relative="1" as="geometry">
            <mxPoint x="828.43" y="250.66" as="sourcePoint" />
            <mxPoint x="828.4539999999998" y="280.00000000000006" as="targetPoint" />
          </mxGeometry>
        </mxCell>
        <mxCell id="OwwZIWe60FuZfEsH7cmh-45" value="" style="endArrow=classic;html=1;rounded=0;entryX=0.526;entryY=0.015;entryDx=0;entryDy=0;entryPerimeter=0;" edge="1" parent="1">
          <mxGeometry width="50" height="50" relative="1" as="geometry">
            <mxPoint x="996.6" y="249.55" as="sourcePoint" />
            <mxPoint x="996.4020000000002" y="280.00000000000006" as="targetPoint" />
            <Array as="points">
              <mxPoint x="996.6" y="269.55" />
            </Array>
          </mxGeometry>
        </mxCell>
      </root>
    </mxGraphModel>
  </diagram>
</mxfile>
